<?xml version="1.0" encoding="utf-8"?>
<?xml-stylesheet type="text/xsl" href="rss1.xsl"?>
<rss version="2.0" xmlns:atom="http://www.w3.org/2005/Atom" xmlns:content="http://purl.org/rss/1.0/modules/content/" xmlns:dc="http://purl.org/dc/elements/1.1/" xmlns:media="http://search.yahoo.com/mrss/">
<channel>
 <title>Getty</title>
 <link>http://www.gettyimg.com/</link>
 <atom:link href="http://www.gettyimg.com/" rel="self" type="application/rss+xml" />

 
                <item>
                <title><![CDATA[【Cinema Center】MOVIE - Pooh’s Grand Adventure: The Search for Christopher Robin (1997) (DVDRip DivX)]]></title>
                <link><![CDATA[https://sharemania.us/threads/pooh%E2%80%99s-grand-adventure-the-search-for-christopher-robin-1997-dvdrip-divx.234031/]]></link>
                <description><![CDATA[<article>
<blockquote class="messageText SelectQuoteContainer ugc baseHtml">
<b>Release Name</b><br>
Pooh’s Grand Adventure - The Search for Christopher Robin (1997) (DVDRip DivX)<br>
<br>
<b>Screenshot</b><br>
<img src="https://i.ibb.co/K93q5Rr/Pooh-s-Grand-Adventure-The-Search-for-Christopher-Robin-1997-DVDRip-Div-X-mkv-thumbs.jpg" class="bbCodeImage LbImage" alt="[​IMG]" data-url="https://i.ibb.co/K93q5Rr/Pooh-s-Grand-Adventure-The-Search-for-Christopher-Robin-1997-DVDRip-Div-X-mkv-thumbs.jpg" style=""><br>
<br>
<div class="ToggleTriggerAnchor bbCodeSpoilerContainer">
<button type="button" class="button bbCodeSpoilerButton ToggleTrigger Tooltip JsOnly" data-target="> .SpoilerTarget"><span>Spoiler: <span class="SpoilerTitle">Media Information</span></span></button>
<div class="SpoilerTarget bbCodeSpoilerText">General<br>
Unique ID : 276713444008768492972527734443556864629 (0xD02D121ED75F0C4515E80740D7220275)<br>
Complete name : Pooh’s Grand Adventure - The Search for Christopher Robin (1997) (DVDRip DivX).mkv<br>
Format : Matroska<br>
Format version : Version 4<br>
File size : 3.37 GiB<br>
Duration : 1 h 16 min<br>
Overall bit rate mode : Variable<br>
Overall bit rate : 6 346 kb/s<br>
Frame rate : 23.976 FPS<br>
Movie name : Pooh’s Grand Adventure: The Search for Christopher Robin<br>
Encoded date : 2006-04-11 16:00:00 UTC<br>
Writing application : MakeMKV v1.17.5 darwin(arm64-release)<br>
Writing library : libmakemkv v1.17.5 (1.3.10/1.5.2) darwin(arm64-release)<br>
<br>
Video<br>
ID : 1<br>
ID in the original source medium : 224 (0xE0)<br>
Format : MPEG Video<br>
Format version : Version 2<br>
Format profile : Main@Main<br>
Format settings : CustomMatrix / BVOP<br>
Format settings, BVOP : Yes<br>
Format settings, Matrix : Custom<br>
Format settings, GOP : Variable<br>
Codec ID : V_MPEG2<br>
Codec ID/Info : MPEG 1 or 2 Video<br>
Duration : 1 h 16 min<br>
Bit rate mode : Variable<br>
Bit rate : 5 503 kb/s<br>
Maximum bit rate : 9 800 kb/s<br>
Width : 720 pixels<br>
Height : 480 pixels<br>
Display aspect ratio : 16:9<br>
Frame rate mode : Variable<br>
Frame rate : 23.976 FPS<br>
Color space : YUV<br>
Chroma subsampling : 4:2:0<br>
Bit depth : 8 bits<br>
Scan type : Progressive<br>
Scan order : 2:3 Pulldown<br>
Compression mode : Lossy<br>
Bits/(Pixel*Frame) : 0.664<br>
Time code of first frame : 00:59:59;00<br>
Time code source : Group of pictures header<br>
GOP, Open/Closed : Open<br>
GOP, Open/Closed of first frame : Closed<br>
Stream size : 2.92 GiB (87%)<br>
Language : English<br>
Default : No<br>
Forced : No<br>
Original source medium : DVD-Video<br>
<br>
Audio #1<br>
ID : 2<br>
ID in the original source medium : 189 (0xBD)128 (0x80)<br>
Format : AC-3<br>
Format/Info : Audio Coding 3<br>
Commercial name : Dolby Digital<br>
Codec ID : A_AC3<br>
Duration : 1 h 16 min<br>
Bit rate mode : Constant<br>
Bit rate : 448 kb/s<br>
Channel(s) : 6 channels<br>
Channel layout : L R C LFE Ls Rs<br>
Sampling rate : 48.0 kHz<br>
Frame rate : 31.250 FPS (1536 SPF)<br>
Compression mode : Lossy<br>
Stream size : 244 MiB (7%)<br>
Title : Surround 5.1<br>
Language : English (US)<br>
Service kind : Complete Main<br>
Default : Yes<br>
Forced : No<br>
Original source medium : DVD-Video<br>
<br>
Audio #2<br>
ID : 3<br>
ID in the original source medium : 189 (0xBD)129 (0x81)<br>
Format : AC-3<br>
Format/Info : Audio Coding 3<br>
Commercial name : Dolby Digital<br>
Format settings : Dolby Surround<br>
Codec ID : A_AC3<br>
Duration : 1 h 16 min<br>
Bit rate mode : Constant<br>
Bit rate : 192 kb/s<br>
Channel(s) : 2 channels<br>
Channel layout : L R<br>
Sampling rate : 48.0 kHz<br>
Frame rate : 31.250 FPS (1536 SPF)<br>
Compression mode : Lossy<br>
Stream size : 104 MiB (3%)<br>
Title : Stereo<br>
Language : French (FR)<br>
Service kind : Complete Main<br>
Default : No<br>
Forced : No<br>
Original source medium : DVD-Video<br>
<br>
Audio #3<br>
ID : 4<br>
ID in the original source medium : 189 (0xBD)130 (0x82)<br>
Format : AC-3<br>
Format/Info : Audio Coding 3<br>
Commercial name : Dolby Digital<br>
Format settings : Dolby Surround<br>
Codec ID : A_AC3<br>
Duration : 1 h 16 min<br>
Bit rate mode : Constant<br>
Bit rate : 192 kb/s<br>
Channel(s) : 2 channels<br>
Channel layout : L R<br>
Sampling rate : 48.0 kHz<br>
Frame rate : 31.250 FPS (1536 SPF)<br>
Compression mode : Lossy<br>
Stream size : 104 MiB (3%)<br>
Title : Stereo<br>
Language : Spanish (Latin America)<br>
Service kind : Complete Main<br>
Default : No<br>
Forced : No<br>
Original source medium : DVD-Video<br>
<br>
Text #1<br>
ID : 5<br>
ID in the original source medium : 189 (0xBD)32 (0x20)<br>
Format : VobSub<br>
Codec ID : S_VOBSUB<br>
Codec ID/Info : Picture based subtitle format used on DVDs<br>
Duration : 1 h 15 min<br>
Bit rate : 4 550 b/s<br>
Frame rate : 0.228 FPS<br>
Count of elements : 1035<br>
Stream size : 2.46 MiB (0%)<br>
Language : English<br>
Default : Yes<br>
Forced : No<br>
Original source medium : DVD-Video<br>
<br>
Text #2<br>
ID : 6<br>
ID in the original source medium : 189 (0xBD)33 (0x21)<br>
Format : VobSub<br>
Codec ID : S_VOBSUB<br>
Codec ID/Info : Picture based subtitle format used on DVDs<br>
Duration : 1 h 8 min<br>
Bit rate : 129 b/s<br>
Frame rate : 0.007 FPS<br>
Count of elements : 27<br>
Stream size : 65.4 KiB (0%)<br>
Language : French<br>
Default : No<br>
Forced : No<br>
Original source medium : DVD-Video<br>
<br>
Text #3<br>
ID : 7<br>
ID in the original source medium : 189 (0xBD)34 (0x22)<br>
Format : VobSub<br>
Codec ID : S_VOBSUB<br>
Codec ID/Info : Picture based subtitle format used on DVDs<br>
Duration : 36 min 4 s<br>
Bit rate : 241 b/s<br>
Frame rate : 0.012 FPS<br>
Count of elements : 25<br>
Stream size : 63.9 KiB (0%)<br>
Language : Spanish<br>
Default : No<br>
Forced : No<br>
Original source medium : DVD-Video<br>
<br>
Text #4<br>
ID : 8<br>
ID in the original source medium : 189 (0xBD)35 (0x23)<br>
Format : VobSub<br>
Codec ID : S_VOBSUB<br>
Codec ID/Info : Picture based subtitle format used on DVDs<br>
Duration : 1 h 15 min<br>
Bit rate : 10 b/s<br>
Frame rate : 0.000 FPS<br>
Count of elements : 2<br>
Stream size : 5.59 KiB (0%)<br>
Language : English<br>
Default : No<br>
Forced : No<br>
Original source medium : DVD-Video<br>
<br>
Text #5<br>
ID : 9<br>
ID in the original source medium : 224 (0xE0)<br>
Format : UTF-8<br>
Codec ID : S_TEXT/UTF8<br>
Codec ID/Info : UTF-8 Plain Text<br>
Duration : 1 h 15 min<br>
Bit rate : 93 b/s<br>
Frame rate : 0.235 FPS<br>
Count of elements : 1068<br>
Stream size : 51.6 KiB (0%)<br>
Language : English<br>
Default : No<br>
Forced : No<br>
Original source medium : DVD-Video<br>
<br>
Menu<br>
00:00:00.000 : en:Chapter 01<br>
00:02:29.315 : en:Chapter 02<br>
00:04:30.770 : en:Chapter 03<br>
00:07:41.961 : en:Chapter 04<br>
00:10:45.645 : en:Chapter 05<br>
00:13:07.953 : en:Chapter 06<br>
00:16:54.013 : en:Chapter 07<br>
00:19:07.312 : en:Chapter 08<br>
00:24:05.310 : en:Chapter 09<br>
00:28:02.714 : en:Chapter 10<br>
00:32:55.406 : en:Chapter 11<br>
00:36:19.210 : en:Chapter 12<br>
00:41:07.998 : en:Chapter 13<br>
00:44:04.642 : en:Chapter 14<br>
00:49:02.306 : en:Chapter 15<br>
00:56:39.729 : en:Chapter 16<br>
01:00:35.999 : en:Chapter 17<br>
01:02:31.748 : en:Chapter 18<br>
01:05:27.590 : en:Chapter 19<br>
01:06:57.513 : en:Chapter 20<br>
01:09:17.486 : en:Chapter 21<br>
01:12:04.153 : en:Chapter 22</div>
</div><br>
<b>Download</b><br>
<div class="bbCodeBlock bbCodeVfcHH HiddenContent">
<div class="attribution type">Hidden Content:</div>
<blockquote>You must either reply or click 'Like' to see the hidden information contained here.</blockquote>
</div>
<div class="messageTextEndMarker">&nbsp;</div>
</blockquote>
</article>]]></description>
                <author><![CDATA[Austin Zimmermann]]></author>
                </item>

                </channel></rss>